<svg id="Layer_1_1_" enable-background="new 0 0 64 64" height="512" viewBox="0 0 64 64" width="512" xmlns="http://www.w3.org/2000/svg"><path d="m17 22.162c3.53-1.544 6-5.063 6-9.162l-3.749-9.371c-.151-.38-.519-.629-.928-.629h-.323c-.552 0-1 .448-1 1v8.828c0 2.089-1.527 3.955-3.607 4.153-2.386.228-4.393-1.642-4.393-3.981v-9c0-.552-.448-1-1-1h-.323c-.409 0-.777.249-.928.629l-3.749 9.371c0 4.1 2.47 7.619 6 9.162v5.838h8z" fill="#b5b2aa"/><path d="m30 37v20h24v-20z" fill="#f1f8fe"/><path d="m47 44c-.137 0-.267.027-.4.04-.763-1.787-2.534-3.04-4.6-3.04-2.761 0-5 2.239-5 5 0 .065.017.125.019.19-.319-.116-.659-.19-1.019-.19-1.657 0-3 1.343-3 3s1.343 3 3 3h11c2.209 0 4-1.791 4-4s-1.791-4-4-4z" fill="#a8d5fe"/><path d="m58.899 7.929-2.828-2.829c-1.871 1.872-5.071.546-5.071-2.1h-4c0 2.646-3.2 3.972-5.071 2.1l-2.828 2.828c1.871 1.872.546 5.072-2.101 5.072v4c2.646 0 3.972 3.2 2.1 5.071l2.828 2.828c1.872-1.871 5.072-.546 5.072 2.101h4c0-2.646 3.2-3.972 5.071-2.101l2.828-2.828c-1.871-1.871-.546-5.071 2.101-5.071v-4c-2.647 0-3.972-3.2-2.101-5.071zm-9.899 13.071c-3.314 0-6-2.686-6-6s2.686-6 6-6 6 2.686 6 6-2.686 6-6 6z" fill="#b5b2aa"/><path d="m27 61h-22c-1.105 0-2-.895-2-2v-29c0-1.105.895-2 2-2h22c1.105 0 2 .895 2 2v29c0 1.105-.895 2-2 2z" fill="#004eb1"/><path d="m25 58h-18c-.552 0-1-.448-1-1v-25c0-.552.448-1 1-1h18c.552 0 1 .448 1 1v25c0 .552-.448 1-1 1z" fill="#f1f8fe"/><path d="m11 44h4c.552 0 1-.448 1-1v-2h-6v2c0 .552.448 1 1 1z" fill="#004eb1"/><path d="m19 59v-16c0-1.105-.895-2-2-2h-1v2c0 .552-.448 1-1 1h-4c-.552 0-1-.448-1-1v-2h-1c-1.105 0-2 .895-2 2v16c0 1.105.895 2 2 2h8c1.105 0 2-.895 2-2z" fill="#2b67b3"/><path d="m16 59h-6c-.552 0-1-.448-1-1v-13c0-.552.448-1 1-1h6c.552 0 1 .448 1 1v13c0 .552-.448 1-1 1z" fill="#f1f8fe"/><g fill="#8c8a84"><path d="m6 13c0 2.339 2.007 4.209 4.393 3.981.39-.037.752-.149 1.097-.295-1.456-.597-2.49-2.014-2.49-3.686v-9c0-.552-.448-1-1-1h-.323c-.409 0-.777.249-.928.629l-.749 1.871z"/><path d="m19.251 3.629c-.151-.38-.519-.629-.928-.629h-.323c-.552 0-1 .448-1 1v1.5l3 7.5c0 4.1-2.47 7.619-6 9.162v5.838h3v-5.838c3.53-1.544 6-5.063 6-9.162z"/><path d="m58.899 7.929-2.828-2.829c-.398.398-.857.644-1.332.77-.29 1.702-.829 3.316-1.586 4.806 1.137 1.092 1.847 2.624 1.847 4.324 0 3.314-2.686 6-6 6-1.886 0-3.566-.872-4.666-2.232-1.376.553-2.84.933-4.367 1.109.03.766-.229 1.557-.866 2.194l2.828 2.828c1.871-1.871 5.071-.546 5.071 2.101h4c0-2.646 3.2-3.972 5.071-2.101l2.828-2.828c-1.871-1.871-.546-5.071 2.101-5.071v-4c-2.647 0-3.972-3.2-2.101-5.071z"/></g><path d="m26 35v22h4v-20h24v20h4v-22c0-1.105-.895-2-2-2h-27-1c-1.105 0-2 .895-2 2z" fill="#2b67b3"/><path d="m54 57h-24-4-3c0 2.209 1.791 4 4 4h30c2.209 0 4-1.791 4-4h-3z" fill="#2b67b3"/><path d="m57 59h-30c-1.477 0-2.752-.809-3.445-2h-.555c0 2.209 1.791 4 4 4h30c2.209 0 4-1.791 4-4h-.555c-.693 1.191-1.968 2-3.445 2z" fill="#004eb1"/><path d="m61 56h-2v-21c0-1.654-1.346-3-3-3h-26v-2c0-1.654-1.346-3-3-3h-9v-4.206c3.666-1.872 6-5.646 6-9.794 0-.127-.024-.253-.071-.372l-3.749-9.371c-.305-.764-1.034-1.257-1.857-1.257h-.323c-1.103 0-2 .897-2 2v8.828c0 1.626-1.187 3.013-2.702 3.158-.862.085-1.683-.19-2.316-.766-.624-.568-.982-1.377-.982-2.22v-9c0-1.103-.897-2-2-2h-.323c-.823 0-1.552.493-1.857 1.257l-3.749 9.372c-.047.118-.071.244-.071.371 0 4.148 2.334 7.923 6 9.794v4.206h-3c-1.654 0-3 1.346-3 3v29c0 1.654 1.346 3 3 3h4 8 10 30c2.757 0 5-2.243 5-5 0-.552-.448-1-1-1zm-4-21v21h-2v-19c0-.552-.448-1-1-1h-24c-.552 0-1 .448-1 1v19h-2v-21c0-.551.449-1 1-1h28c.551 0 1 .449 1 1zm-4 21h-22v-18h22zm-43.6-34.754c-3.223-1.41-5.326-4.558-5.398-8.059l3.675-9.187h.323v9c0 1.405.597 2.754 1.637 3.7s2.444 1.411 3.852 1.277c2.529-.242 4.511-2.503 4.511-5.149v-8.828h.323l3.675 9.188c-.073 3.5-2.175 6.649-5.398 8.059-.364.159-.6.519-.6.916v4.837h-6v-4.838c0-.397-.235-.757-.6-.916zm-5.4 37.754v-29c0-.551.449-1 1-1h22c.551 0 1 .449 1 1v2c-1.654 0-3 1.346-3 3v21h-2c-.552 0-1 .448-1 1 0 1.13.391 2.162 1.026 3h-3.21c.112-.314.184-.648.184-1v-16c0-1.654-1.346-3-3-3h-8c-1.654 0-3 1.346-3 3v16c0 .352.072.686.184 1h-1.184c-.551 0-1-.449-1-1zm7-17h4v1h-4zm-2 18c-.551 0-1-.449-1-1v-16c0-.551.449-1 1-1v1c0 1.103.897 2 2 2h4c1.103 0 2-.897 2-2v-1c.551 0 1 .449 1 1v16c0 .551-.449 1-1 1zm48 0h-30c-1.304 0-2.416-.836-2.829-2h35.657c-.412 1.164-1.524 2-2.828 2z"/><path d="m15 30h2v2h-2z"/><path d="m36 53h11c2.757 0 5-2.243 5-5 0-2.691-2.136-4.892-4.802-4.996-1.062-1.846-3.032-3.004-5.198-3.004-2.968 0-5.44 2.167-5.917 5.001-2.205-.038-4.083 1.766-4.083 3.999 0 2.206 1.794 4 4 4zm0-6c.216 0 .438.042.678.129.314.115.662.065.931-.132.269-.196.422-.513.41-.846-.002-.034-.014-.117-.019-.151 0-2.206 1.794-4 4-4 1.605 0 3.049.955 3.68 2.433.172.403.584.652 1.021.603l.165-.02c.044-.007.088-.016.134-.016 1.654 0 3 1.346 3 3s-1.346 3-3 3h-11c-1.103 0-2-.897-2-2s.897-2 2-2z"/><path d="m61 12c-.825 0-1.505-.455-1.821-1.217-.315-.762-.156-1.564.427-2.147.188-.188.293-.442.293-.707s-.105-.52-.293-.707l-2.829-2.828c-.391-.391-1.023-.391-1.414 0-.583.582-1.386.742-2.147.427-.761-.316-1.216-.997-1.216-1.821 0-.552-.448-1-1-1h-4c-.552 0-1 .448-1 1 0 .824-.455 1.505-1.216 1.82-.761.316-1.564.157-2.148-.427-.391-.391-1.023-.391-1.414 0l-2.828 2.829c-.188.188-.293.442-.293.707s.105.52.293.707c.583.583.743 1.386.427 2.147-.316.762-.996 1.217-1.821 1.217-.552 0-1 .448-1 1v4c0 .552.448 1 1 1 .824 0 1.505.455 1.82 1.216.316.762.156 1.565-.427 2.148-.391.391-.391 1.024 0 1.414l2.829 2.828c.391.391 1.023.391 1.414 0 .583-.583 1.384-.743 2.147-.427.762.316 1.217.997 1.217 1.821 0 .552.448 1 1 1h4c.552 0 1-.448 1-1 0-.824.455-1.505 1.216-1.82.762-.315 1.565-.156 2.148.427.391.391 1.023.391 1.414 0l2.828-2.829c.391-.391.391-1.023 0-1.414-.583-.583-.743-1.386-.427-2.147.316-.762.997-1.217 1.821-1.217.552 0 1-.448 1-1v-4c0-.552-.448-1-1-1zm-1 4.122c-1.195.3-2.174 1.136-2.668 2.329-.495 1.193-.394 2.477.239 3.534l-1.587 1.587c-1.057-.633-2.34-.733-3.533-.24-1.193.494-2.029 1.474-2.329 2.668h-2.244c-.3-1.195-1.136-2.174-2.329-2.668-1.192-.493-2.477-.394-3.534.239l-1.587-1.587c.633-1.057.734-2.34.24-3.533s-1.473-2.029-2.668-2.329v-2.244c1.195-.3 2.174-1.136 2.668-2.329s.393-2.477-.24-3.534l1.587-1.587c1.056.633 2.341.734 3.533.24 1.194-.494 2.03-1.473 2.33-2.668h2.244c.3 1.195 1.136 2.174 2.329 2.668 1.192.494 2.476.394 3.534-.239l1.586 1.586c-.633 1.057-.734 2.341-.24 3.533.494 1.193 1.473 2.03 2.668 2.33v2.244z"/><path d="m49 8c-3.86 0-7 3.14-7 7s3.14 7 7 7 7-3.14 7-7-3.14-7-7-7zm0 12c-2.757 0-5-2.243-5-5s2.243-5 5-5 5 2.243 5 5-2.243 5-5 5z"/><path d="m33 14h2v2h-2z"/><path d="m29 14h2v2h-2z"/><path d="m25 14h2v2h-2z"/><path d="m30 22h2v2h-2z"/><path d="m26 22h2v2h-2z"/><path d="m22 22h2v2h-2z"/><path d="m34 22h2v2h-2z"/></svg>