<?xml version="1.0"?>
<svg xmlns="http://www.w3.org/2000/svg" viewBox="0 0 64 64" width="512" height="512"><path d="m61 47v-40a4 4 0 0 0 -4-4h-50a4 4 0 0 0 -4 4v40a4 4 0 0 0 4 4h16l-5 6h-10l-5 4h58l-5-4h-10l-5-6h16a4 4 0 0 0 4-4z" fill="#d9d9d9"/><path d="m7 38h50v9h-50z" fill="#d2ebf7"/><path d="m7 20v18h50v-18z" fill="#787878"/><path d="m7 7h50v13h-50z" fill="#d2ebf7"/><path d="m18.6 28a5.272 5.272 0 0 0 -2.928.887l-.334.222a3 3 0 0 0 -1.338 2.497v.394l.454.454a5.277 5.277 0 0 0 3.732 1.546h1.075a5.272 5.272 0 0 0 1.45-.2l6.289-1.8-5.783-3.3a5.286 5.286 0 0 0 -2.617-.7z" fill="#f7ba41"/><path d="m48.664 29.109-.334-.222a5.279 5.279 0 0 0 -5.547-.192l-5.783 3.305 6.289 1.8a5.272 5.272 0 0 0 1.45.2h1.075a5.277 5.277 0 0 0 3.732-1.546l.454-.454v-.394a3 3 0 0 0 -1.336-2.497z" fill="#f7ba41"/><path d="m57 2h-50a5.006 5.006 0 0 0 -5 5v40a5.006 5.006 0 0 0 5 5h13.865l-3.334 4h-9.531a1 1 0 0 0 -.625.219l-5 4a1 1 0 0 0 .625 1.781h58a1 1 0 0 0 .625-1.781l-5-4a1 1 0 0 0 -.625-.219h-9.531l-3.334-4h13.865a5.006 5.006 0 0 0 5-5v-40a5.006 5.006 0 0 0 -5-5zm1.149 58h-52.298l2.5-2h47.3zm-14.284-4h-23.73l3.334-4h17.062zm16.135-9a3 3 0 0 1 -3 3h-50a3 3 0 0 1 -3-3v-40a3 3 0 0 1 3-3h50a3 3 0 0 1 3 3z"/><path d="m57 6h-50a1 1 0 0 0 -1 1v40a1 1 0 0 0 1 1h50a1 1 0 0 0 1-1v-40a1 1 0 0 0 -1-1zm-1 2v6h-48v-6zm-48 11v-3h48v3zm48 2v16h-48v-16zm-48 25v-7h48v7z"/><path d="m12.556 26.832.552-.37a8.793 8.793 0 0 1 8.369-.711l6.244 2.774a1.974 1.974 0 0 0 .813.174 2 2 0 0 0 1.788-1.107l.573-1.145-1.79-.894-.572 1.147-6.244-2.775a10.815 10.815 0 0 0 -10.289.875l-.554.369z"/><path d="m27.5 31.132-5.783-3.3a6.382 6.382 0 0 0 -6.6.228l-.334.222a3.993 3.993 0 0 0 -1.783 3.323v.395a1 1 0 0 0 .293.707l.454.455a6.243 6.243 0 0 0 4.44 1.838h1.074a6.242 6.242 0 0 0 1.724-.242l6.289-1.8a1 1 0 0 0 .222-1.829zm-7.059 1.7a4.26 4.26 0 0 1 -1.18.168h-1.074a4.254 4.254 0 0 1 -3.026-1.253l-.161-.161a2 2 0 0 1 .891-1.645l.334-.222a4.348 4.348 0 0 1 4.5-.156l3.722 2.127z"/><path d="m35.466 28.7a1.992 1.992 0 0 0 .813-.173l6.244-2.776a8.8 8.8 0 0 1 8.368.712l.553.37 1.112-1.664-.556-.369a10.82 10.82 0 0 0 -10.29-.875l-6.243 2.775-.567-1.147-1.79.894.573 1.146a2 2 0 0 0 1.783 1.107z"/><path d="m49.219 28.277-.334-.222a6.38 6.38 0 0 0 -6.6-.228l-5.785 3.305a1 1 0 0 0 .222 1.829l6.289 1.8a6.242 6.242 0 0 0 1.728.239h1.074a6.24 6.24 0 0 0 4.44-1.839l.454-.454a1 1 0 0 0 .293-.707v-.395a3.993 3.993 0 0 0 -1.781-3.328zm-.38 3.47a4.254 4.254 0 0 1 -3.026 1.253h-1.074a4.26 4.26 0 0 1 -1.176-.165l-4.006-1.145 3.722-2.127a4.348 4.348 0 0 1 4.5.156l.334.222a2 2 0 0 1 .887 1.645z"/><path d="m10 10h2v2h-2z"/><path d="m14 10h2v2h-2z"/><path d="m18 10h2v2h-2z"/><path d="m52 10h2v2h-2z"/></svg>
